<svg xmlns="http://www.w3.org/2000/svg" xmlns:xlink="http://www.w3.org/1999/xlink" width="228" zoomAndPan="magnify" viewBox="0 0 171 161.249994" height="215" preserveAspectRatio="xMidYMid meet" version="1.0"><defs><g/><clipPath id="de8607c312"><path d="M 5 0 L 147 0 L 147 159.757812 L 5 159.757812 Z M 5 0 " clip-rule="nonzero"/></clipPath></defs><path fill="#000000" d="M 41.585938 30.871094 C 34.730469 30.871094 29.148438 36.445312 29.148438 43.285156 C 29.148438 50.128906 34.730469 55.703125 41.585938 55.703125 C 48.441406 55.703125 54.015625 50.128906 54.015625 43.285156 C 54.015625 36.445312 48.441406 30.871094 41.585938 30.871094 Z M 41.585938 50.617188 C 37.535156 50.617188 34.246094 47.332031 34.246094 43.292969 C 34.246094 39.253906 37.535156 35.964844 41.585938 35.964844 C 45.632812 35.964844 48.921875 39.253906 48.921875 43.292969 C 48.921875 47.332031 45.632812 50.617188 41.585938 50.617188 Z M 41.585938 50.617188 " fill-opacity="1" fill-rule="nonzero"/><path fill="#000000" d="M 87.636719 33.394531 C 87.636719 26.554688 82.054688 20.988281 75.203125 20.988281 C 68.347656 20.988281 62.769531 26.558594 62.769531 33.394531 C 62.769531 40.25 68.347656 45.816406 75.203125 45.816406 C 82.054688 45.816406 87.636719 40.25 87.636719 33.394531 Z M 75.195312 40.734375 C 71.152344 40.734375 67.859375 37.445312 67.859375 33.402344 C 67.859375 29.363281 71.152344 26.078125 75.195312 26.078125 C 79.242188 26.078125 82.535156 29.367188 82.535156 33.402344 C 82.539062 37.441406 79.246094 40.734375 75.195312 40.734375 Z M 75.195312 40.734375 " fill-opacity="1" fill-rule="nonzero"/><path fill="#000000" d="M 118.613281 51.285156 C 118.613281 44.441406 113.035156 38.875 106.183594 38.875 C 99.328125 38.875 93.75 44.445312 93.75 51.285156 C 93.75 58.136719 99.328125 63.703125 106.183594 63.703125 C 113.035156 63.703125 118.613281 58.136719 118.613281 51.285156 Z M 98.839844 51.285156 C 98.839844 47.246094 102.132812 43.964844 106.175781 43.964844 C 110.222656 43.964844 113.515625 47.25 113.515625 51.285156 C 113.515625 55.328125 110.222656 58.617188 106.175781 58.617188 C 102.132812 58.617188 98.839844 55.328125 98.839844 51.285156 Z M 98.839844 51.285156 " fill-opacity="1" fill-rule="nonzero"/><path fill="#000000" d="M 41.585938 103.9375 C 34.730469 103.9375 29.148438 109.511719 29.148438 116.351562 C 29.148438 123.195312 34.730469 128.761719 41.585938 128.761719 C 48.441406 128.761719 54.015625 123.191406 54.015625 116.351562 C 54.015625 109.503906 48.441406 103.9375 41.585938 103.9375 Z M 41.585938 123.679688 C 37.535156 123.679688 34.246094 120.394531 34.246094 116.359375 C 34.246094 112.324219 37.535156 109.03125 41.585938 109.03125 C 45.632812 109.03125 48.921875 112.316406 48.921875 116.359375 C 48.921875 120.398438 45.632812 123.679688 41.585938 123.679688 Z M 41.585938 123.679688 " fill-opacity="1" fill-rule="nonzero"/><g clip-path="url(#de8607c312)"><path fill="#000000" d="M 140.613281 92.480469 C 133.753906 132.542969 95.304688 154.550781 67.875 154.550781 C 35.945312 154.550781 18.085938 137.863281 12.503906 123.566406 C 6.179688 107.421875 19.65625 97.410156 21.210938 96.328125 C 22.1875 95.644531 23.183594 94.980469 24.160156 94.324219 C 30.050781 90.371094 36.140625 86.285156 36.140625 79.824219 C 36.140625 73.355469 30.042969 69.265625 24.140625 65.300781 C 23.167969 64.652344 22.179688 63.988281 21.210938 63.308594 C 19.65625 62.222656 6.179688 52.222656 12.503906 36.074219 C 18.085938 21.777344 35.945312 5.085938 67.875 5.085938 C 91.472656 5.085938 123.207031 21.390625 136.015625 51.425781 C 137.554688 50.207031 138.949219 49.144531 140.335938 48.09375 C 126.535156 16.597656 93.445312 0 67.875 0 C 33.375 0 13.929688 18.433594 7.753906 34.226562 C 1.464844 50.277344 11.417969 62.6875 18.292969 67.488281 C 19.289062 68.1875 20.304688 68.863281 21.304688 69.535156 C 26.3125 72.894531 31.050781 76.066406 31.050781 79.824219 C 31.050781 83.566406 26.328125 86.738281 21.324219 90.101562 C 20.3125 90.777344 19.296875 91.457031 18.292969 92.15625 C 11.417969 96.957031 1.472656 109.367188 7.753906 125.414062 C 13.925781 141.207031 33.375 159.640625 67.875 159.640625 C 99.722656 159.640625 143.246094 133.929688 146.558594 85.660156 C 146.429688 85.8125 146.308594 85.957031 146.179688 86.109375 C 144.382812 88.234375 142.503906 90.363281 140.613281 92.480469 Z M 140.613281 92.480469 " fill-opacity="1" fill-rule="nonzero"/></g><path fill="#000000" d="M 90.59375 99.851562 C 74.203125 107.351562 70.988281 122.558594 73.269531 133.40625 C 74.453125 139.023438 76.910156 142.371094 79.847656 142.378906 C 80.777344 142.378906 82.503906 142.027344 83.675781 139.664062 C 85.664062 135.65625 87.660156 135.265625 91.640625 134.476562 C 94.222656 133.96875 97.4375 133.335938 101.269531 131.496094 C 109.144531 127.71875 110.207031 121.304688 109.535156 117.328125 C 113.722656 113.28125 129.773438 97.578125 142.285156 82.828125 C 161.042969 60.667969 169.324219 49.660156 164.210938 44.527344 C 163.53125 43.851562 162.320312 43.046875 160.390625 43.046875 C 154.554688 43.046875 144.601562 50.582031 125.851562 66.417969 C 109.984375 79.816406 93.027344 97.324219 90.59375 99.851562 Z M 99.070312 126.910156 C 95.816406 128.46875 93.078125 129.007812 90.660156 129.484375 C 86.601562 130.277344 82.75 131.042969 79.628906 136.414062 C 78.574219 134.46875 77.347656 130.078125 77.863281 124.675781 C 78.347656 119.574219 80.796875 110.441406 91.589844 104.996094 L 104.453125 117.828125 C 104.796875 119.34375 105.234375 123.949219 99.070312 126.910156 Z M 160.566406 48.054688 C 162.007812 51.652344 146.058594 70.488281 138.402344 79.539062 C 126.707031 93.332031 111.832031 108.003906 106.757812 112.933594 L 95.699219 101.902344 C 100.632812 96.832031 115.328125 81.96875 129.148438 70.292969 C 139.601562 61.472656 155.398438 48.128906 160.566406 48.054688 Z M 160.566406 48.054688 " fill-opacity="1" fill-rule="nonzero"/><g fill="#000000" fill-opacity="1"><g transform="translate(45.587471, 124.968098)"><g><path d="M 2 -1.390625 C 2 -1.984375 2.128906 -2.429688 2.390625 -2.734375 C 2.660156 -3.035156 3.046875 -3.1875 3.546875 -3.1875 C 4.054688 -3.1875 4.453125 -3.035156 4.734375 -2.734375 C 5.023438 -2.429688 5.171875 -1.984375 5.171875 -1.390625 C 5.171875 -0.816406 5.023438 -0.378906 4.734375 -0.078125 C 4.441406 0.222656 4.046875 0.375 3.546875 0.375 C 3.097656 0.375 2.726562 0.238281 2.4375 -0.03125 C 2.144531 -0.3125 2 -0.765625 2 -1.390625 Z M 2 -1.390625 "/></g></g></g></svg>