<svg xmlns="http://www.w3.org/2000/svg" xmlns:xlink="http://www.w3.org/1999/xlink" width="121" zoomAndPan="magnify" viewBox="0 0 90.75 126.750001" height="169" preserveAspectRatio="xMidYMid meet" version="1.0"><defs><g/><clipPath id="2a89d29527"><path d="M 0 0.0507812 L 89.753906 0.0507812 L 89.753906 125.703125 L 0 125.703125 Z M 0 0.0507812 " clip-rule="nonzero"/></clipPath></defs><g clip-path="url(#2a89d29527)"><path fill="#000000" d="M 44.875 95.757812 C 45.953125 95.757812 47.027344 95.703125 48.101562 95.59375 C 49.171875 95.488281 50.234375 95.328125 51.292969 95.117188 C 52.347656 94.90625 53.390625 94.644531 54.421875 94.328125 C 55.453125 94.015625 56.464844 93.652344 57.460938 93.238281 C 58.457031 92.828125 59.429688 92.367188 60.378906 91.859375 C 61.328125 91.351562 62.25 90.796875 63.144531 90.199219 C 64.042969 89.601562 64.90625 88.960938 65.738281 88.277344 C 66.570312 87.59375 67.367188 86.871094 68.128906 86.109375 C 68.890625 85.347656 69.613281 84.550781 70.296875 83.71875 C 70.980469 82.886719 71.621094 82.023438 72.222656 81.128906 C 72.820312 80.234375 73.375 79.3125 73.882812 78.363281 C 74.390625 77.417969 74.851562 76.445312 75.265625 75.449219 C 75.679688 74.457031 76.042969 73.445312 76.355469 72.414062 C 76.667969 71.386719 76.933594 70.34375 77.144531 69.289062 C 77.355469 68.230469 77.515625 67.167969 77.621094 66.097656 C 77.730469 65.027344 77.785156 63.953125 77.785156 62.875 L 77.785156 32.984375 C 77.785156 31.90625 77.734375 30.832031 77.628906 29.761719 C 77.523438 28.6875 77.363281 27.625 77.152344 26.570312 C 76.941406 25.511719 76.679688 24.46875 76.367188 23.4375 C 76.054688 22.40625 75.691406 21.394531 75.28125 20.402344 C 74.867188 19.40625 74.40625 18.433594 73.898438 17.484375 C 73.390625 16.535156 72.839844 15.609375 72.238281 14.714844 C 71.640625 13.820312 71 12.957031 70.316406 12.125 C 69.632812 11.292969 68.910156 10.496094 68.148438 9.734375 C 67.382812 8.972656 66.585938 8.25 65.753906 7.566406 C 64.921875 6.882812 64.054688 6.242188 63.160156 5.644531 C 62.261719 5.046875 61.339844 4.492188 60.390625 3.984375 C 59.4375 3.476562 58.464844 3.015625 57.46875 2.605469 C 56.472656 2.191406 55.460938 1.832031 54.429688 1.519531 C 53.398438 1.207031 52.355469 0.945312 51.296875 0.734375 C 50.238281 0.523438 49.175781 0.367188 48.101562 0.261719 C 47.03125 0.15625 45.953125 0.101562 44.875 0.101562 C 43.796875 0.101562 42.722656 0.15625 41.652344 0.261719 C 40.578125 0.367188 39.511719 0.523438 38.457031 0.734375 C 37.398438 0.945312 36.355469 1.207031 35.324219 1.519531 C 34.292969 1.832031 33.277344 2.191406 32.28125 2.605469 C 31.285156 3.015625 30.3125 3.476562 29.363281 3.984375 C 28.414062 4.492188 27.488281 5.046875 26.59375 5.644531 C 25.695312 6.242188 24.832031 6.882812 24 7.566406 C 23.164062 8.25 22.367188 8.972656 21.605469 9.734375 C 20.84375 10.496094 20.121094 11.292969 19.4375 12.125 C 18.753906 12.957031 18.113281 13.820312 17.511719 14.714844 C 16.914062 15.609375 16.359375 16.535156 15.851562 17.484375 C 15.34375 18.433594 14.882812 19.40625 14.472656 20.402344 C 14.058594 21.394531 13.695312 22.40625 13.382812 23.4375 C 13.070312 24.46875 12.808594 25.511719 12.597656 26.570312 C 12.390625 27.625 12.230469 28.6875 12.125 29.761719 C 12.019531 30.832031 11.96875 31.90625 11.96875 32.984375 L 11.96875 62.875 C 11.96875 63.953125 12.023438 65.027344 12.132812 66.097656 C 12.238281 67.167969 12.398438 68.230469 12.609375 69.289062 C 12.820312 70.34375 13.082031 71.386719 13.398438 72.414062 C 13.710938 73.445312 14.074219 74.457031 14.488281 75.449219 C 14.902344 76.445312 15.363281 77.417969 15.871094 78.363281 C 16.378906 79.3125 16.933594 80.234375 17.53125 81.128906 C 18.128906 82.023438 18.773438 82.886719 19.457031 83.71875 C 20.140625 84.550781 20.863281 85.347656 21.625 86.109375 C 22.386719 86.871094 23.183594 87.59375 24.015625 88.277344 C 24.847656 88.960938 25.710938 89.601562 26.605469 90.199219 C 27.503906 90.796875 28.425781 91.351562 29.375 91.859375 C 30.324219 92.367188 31.296875 92.828125 32.292969 93.238281 C 33.285156 93.652344 34.300781 94.015625 35.328125 94.328125 C 36.359375 94.644531 37.402344 94.90625 38.460938 95.117188 C 39.515625 95.328125 40.582031 95.488281 41.652344 95.59375 C 42.722656 95.703125 43.800781 95.757812 44.875 95.757812 Z M 17.949219 32.984375 C 17.949219 32.101562 17.992188 31.222656 18.082031 30.347656 C 18.167969 29.46875 18.296875 28.597656 18.46875 27.734375 C 18.640625 26.871094 18.855469 26.015625 19.109375 25.175781 C 19.367188 24.332031 19.664062 23.503906 20 22.6875 C 20.335938 21.875 20.714844 21.078125 21.128906 20.300781 C 21.546875 19.523438 22 18.769531 22.488281 18.035156 C 22.976562 17.304688 23.503906 16.597656 24.0625 15.917969 C 24.621094 15.234375 25.214844 14.582031 25.835938 13.960938 C 26.460938 13.335938 27.113281 12.746094 27.792969 12.1875 C 28.476562 11.628906 29.183594 11.105469 29.917969 10.613281 C 30.652344 10.125 31.40625 9.671875 32.183594 9.257812 C 32.960938 8.839844 33.757812 8.464844 34.574219 8.128906 C 35.386719 7.792969 36.214844 7.496094 37.058594 7.238281 C 37.902344 6.984375 38.757812 6.769531 39.625 6.597656 C 40.488281 6.425781 41.359375 6.296875 42.238281 6.210938 C 43.113281 6.125 43.996094 6.082031 44.875 6.082031 C 45.757812 6.082031 46.636719 6.125 47.515625 6.210938 C 48.394531 6.296875 49.265625 6.425781 50.128906 6.597656 C 50.996094 6.769531 51.847656 6.984375 52.691406 7.238281 C 53.535156 7.496094 54.367188 7.792969 55.179688 8.128906 C 55.996094 8.464844 56.792969 8.839844 57.570312 9.257812 C 58.347656 9.671875 59.101562 10.125 59.835938 10.613281 C 60.570312 11.105469 61.277344 11.628906 61.957031 12.1875 C 62.640625 12.746094 63.292969 13.335938 63.914062 13.960938 C 64.539062 14.582031 65.132812 15.234375 65.691406 15.917969 C 66.25 16.597656 66.773438 17.304688 67.265625 18.035156 C 67.753906 18.769531 68.207031 19.523438 68.621094 20.300781 C 69.039062 21.078125 69.414062 21.875 69.753906 22.6875 C 70.089844 23.503906 70.386719 24.332031 70.644531 25.175781 C 70.898438 26.015625 71.113281 26.871094 71.285156 27.734375 C 71.457031 28.597656 71.585938 29.46875 71.671875 30.347656 C 71.757812 31.222656 71.800781 32.101562 71.800781 32.984375 L 71.800781 62.875 C 71.800781 63.757812 71.757812 64.636719 71.671875 65.511719 C 71.585938 66.390625 71.457031 67.261719 71.285156 68.125 C 71.113281 68.988281 70.898438 69.84375 70.644531 70.6875 C 70.386719 71.527344 70.089844 72.359375 69.753906 73.171875 C 69.414062 73.984375 69.039062 74.78125 68.621094 75.558594 C 68.207031 76.335938 67.753906 77.089844 67.265625 77.824219 C 66.773438 78.554688 66.25 79.261719 65.691406 79.945312 C 65.132812 80.625 64.539062 81.277344 63.914062 81.898438 C 63.292969 82.523438 62.640625 83.113281 61.957031 83.671875 C 61.277344 84.230469 60.570312 84.757812 59.835938 85.246094 C 59.101562 85.734375 58.347656 86.1875 57.570312 86.601562 C 56.792969 87.019531 55.996094 87.394531 55.179688 87.730469 C 54.367188 88.070312 53.535156 88.367188 52.691406 88.621094 C 51.847656 88.878906 50.996094 89.089844 50.128906 89.261719 C 49.265625 89.433594 48.394531 89.5625 47.515625 89.648438 C 46.636719 89.738281 45.757812 89.78125 44.875 89.78125 C 43.996094 89.78125 43.113281 89.738281 42.238281 89.648438 C 41.359375 89.5625 40.488281 89.433594 39.625 89.261719 C 38.757812 89.089844 37.902344 88.878906 37.058594 88.621094 C 36.214844 88.367188 35.386719 88.070312 34.574219 87.730469 C 33.757812 87.394531 32.960938 87.019531 32.183594 86.601562 C 31.40625 86.1875 30.652344 85.734375 29.917969 85.246094 C 29.183594 84.757812 28.476562 84.230469 27.792969 83.671875 C 27.113281 83.113281 26.460938 82.523438 25.835938 81.898438 C 25.214844 81.277344 24.621094 80.625 24.0625 79.945312 C 23.503906 79.261719 22.976562 78.554688 22.488281 77.824219 C 22 77.089844 21.546875 76.335938 21.128906 75.558594 C 20.714844 74.78125 20.335938 73.984375 20 73.171875 C 19.664062 72.359375 19.367188 71.527344 19.109375 70.6875 C 18.855469 69.84375 18.640625 68.988281 18.46875 68.125 C 18.296875 67.261719 18.167969 66.390625 18.082031 65.511719 C 17.992188 64.636719 17.949219 63.757812 17.949219 62.875 Z M 47.867188 107.714844 L 47.867188 119.671875 L 62.828125 119.671875 C 63.222656 119.671875 63.605469 119.75 63.972656 119.898438 C 64.339844 120.050781 64.660156 120.265625 64.941406 120.546875 C 65.222656 120.828125 65.4375 121.152344 65.589844 121.519531 C 65.742188 121.882812 65.820312 122.265625 65.820312 122.660156 C 65.820312 123.058594 65.742188 123.4375 65.589844 123.804688 C 65.4375 124.171875 65.222656 124.496094 64.941406 124.773438 C 64.660156 125.054688 64.339844 125.273438 63.972656 125.421875 C 63.605469 125.574219 63.222656 125.652344 62.828125 125.652344 L 26.925781 125.652344 C 26.527344 125.652344 26.148438 125.574219 25.78125 125.421875 C 25.414062 125.273438 25.089844 125.054688 24.808594 124.773438 C 24.53125 124.496094 24.3125 124.171875 24.160156 123.804688 C 24.011719 123.4375 23.933594 123.058594 23.933594 122.660156 C 23.933594 122.265625 24.011719 121.882812 24.160156 121.519531 C 24.3125 121.152344 24.53125 120.828125 24.808594 120.546875 C 25.089844 120.265625 25.414062 120.050781 25.78125 119.898438 C 26.148438 119.75 26.527344 119.671875 26.925781 119.671875 L 41.882812 119.671875 L 41.882812 107.714844 C 40.476562 107.625 39.078125 107.464844 37.6875 107.242188 C 36.292969 107.015625 34.917969 106.726562 33.550781 106.375 C 32.1875 106.019531 30.84375 105.601562 29.519531 105.121094 C 28.191406 104.640625 26.894531 104.097656 25.621094 103.496094 C 24.34375 102.890625 23.101562 102.230469 21.890625 101.507812 C 20.679688 100.789062 19.503906 100.011719 18.367188 99.179688 C 17.230469 98.351562 16.132812 97.46875 15.078125 96.53125 C 14.023438 95.597656 13.015625 94.617188 12.054688 93.585938 C 11.089844 92.554688 10.179688 91.484375 9.320312 90.367188 C 8.457031 89.25 7.652344 88.097656 6.902344 86.90625 C 6.148438 85.714844 5.457031 84.488281 4.820312 83.234375 C 4.183594 81.976562 3.609375 80.691406 3.09375 79.378906 C 2.578125 78.070312 2.125 76.734375 1.738281 75.382812 C 1.347656 74.027344 1.023438 72.660156 0.765625 71.273438 C 0.507812 69.890625 0.3125 68.496094 0.183594 67.09375 C 0.0546875 65.691406 -0.00390625 64.285156 0 62.875 C 0 62.480469 0.0742188 62.097656 0.226562 61.734375 C 0.378906 61.367188 0.597656 61.042969 0.875 60.761719 C 1.15625 60.480469 1.480469 60.265625 1.847656 60.113281 C 2.214844 59.964844 2.59375 59.886719 2.992188 59.886719 C 3.386719 59.886719 3.769531 59.964844 4.136719 60.113281 C 4.503906 60.265625 4.828125 60.480469 5.105469 60.761719 C 5.386719 61.042969 5.605469 61.367188 5.753906 61.734375 C 5.90625 62.097656 5.984375 62.480469 5.984375 62.875 C 5.984375 64.148438 6.046875 65.417969 6.171875 66.683594 C 6.296875 67.953125 6.480469 69.210938 6.730469 70.457031 C 6.980469 71.707031 7.289062 72.9375 7.660156 74.15625 C 8.027344 75.375 8.457031 76.570312 8.945312 77.746094 C 9.429688 78.921875 9.976562 80.074219 10.574219 81.195312 C 11.175781 82.316406 11.832031 83.40625 12.539062 84.464844 C 13.246094 85.523438 14.003906 86.546875 14.8125 87.527344 C 15.621094 88.511719 16.472656 89.453125 17.375 90.355469 C 18.277344 91.253906 19.21875 92.109375 20.203125 92.914062 C 21.1875 93.722656 22.210938 94.480469 23.269531 95.1875 C 24.328125 95.894531 25.417969 96.546875 26.542969 97.148438 C 27.664062 97.75 28.816406 98.292969 29.992188 98.777344 C 31.167969 99.265625 32.367188 99.695312 33.585938 100.0625 C 34.804688 100.433594 36.039062 100.742188 37.289062 100.988281 C 38.539062 101.238281 39.796875 101.425781 41.0625 101.550781 C 42.332031 101.675781 43.601562 101.738281 44.875 101.738281 C 46.148438 101.738281 47.421875 101.675781 48.6875 101.550781 C 49.957031 101.425781 51.214844 101.238281 52.464844 100.988281 C 53.714844 100.742188 54.949219 100.433594 56.167969 100.0625 C 57.386719 99.695312 58.582031 99.265625 59.761719 98.777344 C 60.9375 98.292969 62.085938 97.75 63.210938 97.148438 C 64.332031 96.546875 65.425781 95.894531 66.484375 95.1875 C 67.542969 94.480469 68.566406 93.722656 69.550781 92.914062 C 70.535156 92.109375 71.476562 91.253906 72.378906 90.355469 C 73.277344 89.453125 74.132812 88.511719 74.941406 87.527344 C 75.75 86.546875 76.507812 85.523438 77.214844 84.464844 C 77.921875 83.40625 78.578125 82.316406 79.175781 81.195312 C 79.777344 80.074219 80.320312 78.921875 80.808594 77.746094 C 81.296875 76.570312 81.726562 75.375 82.09375 74.15625 C 82.464844 72.9375 82.773438 71.707031 83.023438 70.457031 C 83.269531 69.210938 83.457031 67.953125 83.582031 66.683594 C 83.707031 65.417969 83.769531 64.148438 83.769531 62.875 C 83.769531 62.480469 83.84375 62.097656 83.996094 61.734375 C 84.148438 61.367188 84.363281 61.042969 84.644531 60.761719 C 84.925781 60.480469 85.25 60.265625 85.617188 60.113281 C 85.984375 59.964844 86.363281 59.886719 86.761719 59.886719 C 87.15625 59.886719 87.539062 59.964844 87.90625 60.113281 C 88.273438 60.265625 88.597656 60.480469 88.875 60.761719 C 89.15625 61.042969 89.375 61.367188 89.523438 61.734375 C 89.675781 62.097656 89.753906 62.480469 89.753906 62.875 C 89.757812 64.285156 89.695312 65.691406 89.566406 67.09375 C 89.441406 68.496094 89.246094 69.890625 88.988281 71.273438 C 88.726562 72.660156 88.402344 74.027344 88.015625 75.382812 C 87.625 76.734375 87.175781 78.070312 86.660156 79.378906 C 86.144531 80.691406 85.570312 81.976562 84.933594 83.234375 C 84.296875 84.488281 83.605469 85.714844 82.851562 86.90625 C 82.101562 88.097656 81.292969 89.25 80.433594 90.367188 C 79.574219 91.484375 78.660156 92.554688 77.699219 93.585938 C 76.738281 94.617188 75.730469 95.597656 74.675781 96.53125 C 73.621094 97.46875 72.523438 98.351562 71.386719 99.179688 C 70.246094 100.011719 69.074219 100.789062 67.863281 101.507812 C 66.648438 102.230469 65.40625 102.890625 64.132812 103.496094 C 62.859375 104.097656 61.558594 104.640625 60.234375 105.121094 C 58.910156 105.601562 57.566406 106.019531 56.199219 106.375 C 54.835938 106.726562 53.457031 107.015625 52.066406 107.242188 C 50.675781 107.464844 49.273438 107.625 47.867188 107.714844 Z M 47.867188 107.714844 " fill-opacity="1" fill-rule="nonzero"/></g><g fill="#000000" fill-opacity="1"><g transform="translate(40.458091, 94.068009)"><g><path d="M 2.515625 -1.75 C 2.515625 -2.488281 2.679688 -3.046875 3.015625 -3.421875 C 3.359375 -3.804688 3.84375 -4 4.46875 -4 C 5.113281 -4 5.613281 -3.804688 5.96875 -3.421875 C 6.320312 -3.046875 6.5 -2.488281 6.5 -1.75 C 6.5 -1.03125 6.316406 -0.476562 5.953125 -0.09375 C 5.585938 0.289062 5.09375 0.484375 4.46875 0.484375 C 3.90625 0.484375 3.4375 0.3125 3.0625 -0.03125 C 2.695312 -0.382812 2.515625 -0.957031 2.515625 -1.75 Z M 2.515625 -1.75 "/></g></g></g></svg>