<svg xmlns="http://www.w3.org/2000/svg" xmlns:xlink="http://www.w3.org/1999/xlink" width="298" zoomAndPan="magnify" viewBox="0 0 223.5 171.000002" height="228" preserveAspectRatio="xMidYMid meet" version="1.0"><defs><g/><clipPath id="b0d4807792"><path d="M 26 22 L 222.601562 22 L 222.601562 170 L 26 170 Z M 26 22 " clip-rule="nonzero"/></clipPath><clipPath id="36f94f91c9"><path d="M 0.402344 0 L 197 0 L 197 148 L 0.402344 148 Z M 0.402344 0 " clip-rule="nonzero"/></clipPath></defs><g fill="#272727" fill-opacity="1"><g transform="translate(70.087115, 135.838018)"><g><path d="M 3.59375 -8.046875 C 3.59375 -3.898438 4.441406 -1.828125 6.140625 -1.828125 C 6.609375 -1.828125 7.007812 -2 7.34375 -2.34375 C 7.675781 -2.695312 7.9375 -3.175781 8.125 -3.78125 C 8.3125 -4.382812 8.441406 -5.035156 8.515625 -5.734375 C 8.597656 -6.429688 8.640625 -7.203125 8.640625 -8.046875 C 8.640625 -8.910156 8.597656 -9.695312 8.515625 -10.40625 C 8.441406 -11.125 8.304688 -11.78125 8.109375 -12.375 C 7.921875 -12.96875 7.65625 -13.4375 7.3125 -13.78125 C 6.976562 -14.125 6.578125 -14.296875 6.109375 -14.296875 C 4.429688 -14.296875 3.59375 -12.210938 3.59375 -8.046875 Z M 0.8125 -8.046875 C 0.8125 -9.640625 0.972656 -11.015625 1.296875 -12.171875 C 1.617188 -13.328125 2.050781 -14.203125 2.59375 -14.796875 C 3.132812 -15.398438 3.691406 -15.832031 4.265625 -16.09375 C 4.847656 -16.351562 5.460938 -16.484375 6.109375 -16.484375 C 7.804688 -16.484375 9.113281 -15.742188 10.03125 -14.265625 C 10.957031 -12.785156 11.421875 -10.710938 11.421875 -8.046875 C 11.421875 -5.460938 10.96875 -3.410156 10.0625 -1.890625 C 9.15625 -0.367188 7.847656 0.390625 6.140625 0.390625 C 5.515625 0.390625 4.910156 0.257812 4.328125 0 C 3.753906 -0.257812 3.191406 -0.679688 2.640625 -1.265625 C 2.085938 -1.859375 1.644531 -2.734375 1.3125 -3.890625 C 0.976562 -5.054688 0.8125 -6.441406 0.8125 -8.046875 Z M 0.8125 -8.046875 "/></g></g><g transform="translate(82.320263, 135.838018)"><g><path d="M 0.921875 -12.15625 C 1.234375 -13.5 1.816406 -14.554688 2.671875 -15.328125 C 3.523438 -16.097656 4.644531 -16.484375 6.03125 -16.484375 C 7.488281 -16.484375 8.675781 -16.066406 9.59375 -15.234375 C 10.519531 -14.398438 10.984375 -13.269531 10.984375 -11.84375 C 10.984375 -10.914062 10.769531 -10.070312 10.34375 -9.3125 C 9.925781 -8.5625 9.316406 -7.804688 8.515625 -7.046875 C 8.367188 -6.898438 7.984375 -6.519531 7.359375 -5.90625 C 6.734375 -5.300781 6.304688 -4.878906 6.078125 -4.640625 C 5.859375 -4.398438 5.566406 -4.046875 5.203125 -3.578125 C 4.847656 -3.109375 4.5625 -2.648438 4.34375 -2.203125 L 10.953125 -2.203125 L 10.953125 0 L 1.078125 0 C 1.078125 -0.632812 1.179688 -1.273438 1.390625 -1.921875 C 1.609375 -2.566406 1.851562 -3.128906 2.125 -3.609375 C 2.40625 -4.085938 2.804688 -4.628906 3.328125 -5.234375 C 3.859375 -5.835938 4.296875 -6.304688 4.640625 -6.640625 C 4.984375 -6.984375 5.46875 -7.453125 6.09375 -8.046875 C 6.238281 -8.179688 6.347656 -8.285156 6.421875 -8.359375 C 7.617188 -9.503906 8.21875 -10.6875 8.21875 -11.90625 C 8.21875 -12.65625 8.015625 -13.238281 7.609375 -13.65625 C 7.203125 -14.082031 6.664062 -14.296875 6 -14.296875 C 4.570312 -14.296875 3.640625 -13.359375 3.203125 -11.484375 Z M 0.921875 -12.15625 "/></g></g></g><path fill="#000000" d="M 47.414062 152.441406 L 201.351562 152.441406 C 201.351562 152.441406 158.640625 65.5625 150.207031 63.894531 C 141.773438 62.226562 104.90625 121.820312 104.90625 121.820312 C 104.90625 121.820312 84.726562 83.8125 76.539062 84.769531 C 68.355469 85.730469 47.417969 152.445312 47.417969 152.445312 Z M 47.414062 152.441406 " fill-opacity="1" fill-rule="nonzero"/><path fill="#000000" d="M 110.199219 54.527344 C 110.199219 55.46875 110.109375 56.402344 109.925781 57.328125 C 109.742188 58.253906 109.46875 59.152344 109.105469 60.023438 C 108.746094 60.894531 108.304688 61.722656 107.777344 62.507812 C 107.253906 63.292969 106.660156 64.019531 105.992188 64.683594 C 105.324219 65.351562 104.597656 65.949219 103.8125 66.472656 C 103.027344 66.996094 102.199219 67.4375 101.328125 67.800781 C 100.457031 68.160156 99.558594 68.433594 98.632812 68.617188 C 97.707031 68.800781 96.773438 68.894531 95.828125 68.894531 C 94.886719 68.894531 93.949219 68.800781 93.023438 68.617188 C 92.097656 68.433594 91.199219 68.160156 90.328125 67.800781 C 89.457031 67.4375 88.628906 66.996094 87.84375 66.472656 C 87.058594 65.949219 86.332031 65.351562 85.664062 64.683594 C 85 64.019531 84.402344 63.292969 83.878906 62.507812 C 83.355469 61.722656 82.910156 60.894531 82.550781 60.023438 C 82.1875 59.152344 81.917969 58.253906 81.730469 57.328125 C 81.546875 56.402344 81.457031 55.46875 81.457031 54.527344 C 81.457031 53.582031 81.546875 52.648438 81.730469 51.722656 C 81.917969 50.796875 82.1875 49.898438 82.550781 49.027344 C 82.910156 48.15625 83.355469 47.328125 83.878906 46.546875 C 84.402344 45.761719 85 45.035156 85.664062 44.367188 C 86.332031 43.699219 87.058594 43.105469 87.84375 42.582031 C 88.628906 42.058594 89.457031 41.613281 90.328125 41.253906 C 91.199219 40.894531 92.097656 40.621094 93.023438 40.4375 C 93.949219 40.253906 94.886719 40.160156 95.828125 40.160156 C 96.773438 40.160156 97.707031 40.253906 98.632812 40.4375 C 99.558594 40.621094 100.457031 40.894531 101.328125 41.253906 C 102.199219 41.613281 103.027344 42.058594 103.8125 42.582031 C 104.597656 43.105469 105.324219 43.699219 105.992188 44.367188 C 106.660156 45.035156 107.253906 45.761719 107.777344 46.546875 C 108.304688 47.328125 108.746094 48.15625 109.105469 49.027344 C 109.46875 49.898438 109.742188 50.796875 109.925781 51.722656 C 110.109375 52.648438 110.199219 53.582031 110.199219 54.527344 Z M 110.199219 54.527344 " fill-opacity="0.97" fill-rule="nonzero"/><g clip-path="url(#b0d4807792)"><path fill="#000000" d="M 26.152344 22.660156 L 26.152344 169.945312 L 222.613281 169.945312 L 222.613281 22.660156 Z M 38.429688 32.480469 L 210.335938 32.480469 L 210.335938 160.125 L 38.429688 160.125 Z M 38.429688 32.480469 " fill-opacity="1" fill-rule="nonzero"/></g><g clip-path="url(#36f94f91c9)"><path fill="#000000" d="M 0.402344 0.0703125 L 0.402344 147.355469 L 20.046875 147.355469 L 20.046875 137.535156 L 12.679688 137.535156 L 12.679688 9.886719 L 184.585938 9.886719 L 184.585938 17.429688 L 196.863281 17.429688 L 196.863281 0.0703125 Z M 0.402344 0.0703125 " fill-opacity="1" fill-rule="nonzero"/></g></svg>