<svg xmlns="http://www.w3.org/2000/svg" xmlns:xlink="http://www.w3.org/1999/xlink" width="138" zoomAndPan="magnify" viewBox="0 0 103.5 82.499998" height="110" preserveAspectRatio="xMidYMid meet" version="1.0"><defs><g/><clipPath id="64d3895110"><path d="M 12 0 L 91 0 L 91 81.257812 L 12 81.257812 Z M 12 0 " clip-rule="nonzero"/></clipPath><clipPath id="df68c1db7c"><path d="M 0.0625 34 L 9 34 L 9 63 L 0.0625 63 Z M 0.0625 34 " clip-rule="nonzero"/></clipPath><clipPath id="5554d4cf47"><path d="M 93 34 L 102.195312 34 L 102.195312 63 L 93 63 Z M 93 34 " clip-rule="nonzero"/></clipPath></defs><g fill="#000000" fill-opacity="1"><g transform="translate(48.096207, 48.559455)"><g><path d="M 1.25 -1.53125 C 1.25 -2.125 1.40625 -2.570312 1.71875 -2.875 C 2.039062 -3.1875 2.507812 -3.34375 3.125 -3.34375 C 3.71875 -3.34375 4.175781 -3.1875 4.5 -2.875 C 4.820312 -2.5625 4.984375 -2.113281 4.984375 -1.53125 C 4.984375 -0.96875 4.816406 -0.523438 4.484375 -0.203125 C 4.160156 0.117188 3.707031 0.28125 3.125 0.28125 C 2.53125 0.28125 2.066406 0.125 1.734375 -0.1875 C 1.410156 -0.5 1.25 -0.945312 1.25 -1.53125 Z M 1.25 -1.53125 "/></g></g></g><g clip-path="url(#64d3895110)"><path fill="#0db8f6" d="M 72.820312 81.453125 L 29.550781 81.453125 C 20.019531 81.453125 12.289062 73.722656 12.289062 64.25 L 12.289062 36.203125 C 12.289062 26.671875 20.019531 18.941406 29.550781 18.941406 L 49.328125 18.941406 L 49.386719 12.347656 C 46.8125 11.570312 44.894531 9.171875 44.894531 6.296875 C 44.894531 2.820312 47.769531 0.00390625 51.246094 0.00390625 C 54.722656 0.00390625 57.597656 2.820312 57.597656 6.296875 C 57.597656 9.171875 55.621094 11.628906 52.984375 12.410156 L 52.925781 18.941406 L 72.820312 18.941406 C 82.292969 18.941406 90.023438 26.671875 90.023438 36.203125 L 90.023438 64.3125 C 90.023438 73.78125 82.292969 81.453125 72.820312 81.453125 Z M 34.945312 54.242188 C 29.851562 54.242188 25.835938 50.226562 25.835938 45.191406 C 25.835938 40.097656 29.851562 36.082031 34.945312 36.082031 C 40.039062 36.082031 43.996094 40.097656 43.996094 45.191406 C 43.996094 50.226562 40.039062 54.242188 34.945312 54.242188 Z M 34.945312 39.679688 C 31.828125 39.679688 29.429688 42.078125 29.429688 45.191406 C 29.429688 48.25 31.828125 50.648438 34.945312 50.648438 C 38 50.648438 40.457031 48.25 40.457031 45.191406 C 40.457031 42.078125 38 39.679688 34.945312 39.679688 Z M 67.488281 53.882812 C 62.394531 53.882812 58.316406 49.808594 58.316406 44.773438 C 58.316406 39.738281 62.394531 35.664062 67.488281 35.664062 C 72.460938 35.664062 76.539062 39.738281 76.539062 44.773438 C 76.539062 49.808594 72.460938 53.882812 67.488281 53.882812 Z M 67.488281 39.257812 C 64.371094 39.257812 61.914062 41.777344 61.914062 44.773438 C 61.914062 47.828125 64.371094 50.347656 67.488281 50.347656 C 70.542969 50.347656 72.941406 47.828125 72.941406 44.773438 C 72.941406 41.65625 70.484375 39.257812 67.488281 39.257812 Z M 50.527344 64.789062 C 47.109375 64.789062 44.113281 63.171875 42.4375 61.734375 C 41.65625 61.074219 41.597656 59.875 42.257812 59.21875 C 42.914062 58.496094 43.996094 58.378906 44.773438 59.097656 C 45.3125 59.578125 50.527344 63.710938 55.5 59.15625 C 56.21875 58.496094 57.300781 58.496094 58.078125 59.21875 C 58.738281 59.996094 58.738281 61.074219 58.019531 61.792969 C 55.5 63.953125 52.925781 64.789062 50.527344 64.789062 Z M 50.527344 64.789062 " fill-opacity="1" fill-rule="evenodd"/></g><g clip-path="url(#df68c1db7c)"><path fill="#0db8f6" d="M 8.695312 62.214844 L 7.972656 62.214844 C 3.660156 62.214844 0.0625 58.675781 0.0625 54.300781 L 0.0625 42.078125 C 0.0625 37.699219 3.660156 34.105469 7.972656 34.105469 L 8.8125 34.105469 C 8.753906 34.765625 8.695312 35.484375 8.695312 36.203125 Z M 8.695312 62.214844 " fill-opacity="1" fill-rule="evenodd"/></g><g clip-path="url(#5554d4cf47)"><path fill="#0db8f6" d="M 94.339844 62.214844 L 93.617188 62.214844 L 93.617188 36.203125 C 93.617188 35.421875 93.558594 34.703125 93.5 34.046875 L 94.339844 34.046875 C 98.773438 34.046875 102.367188 37.582031 102.367188 42.015625 L 102.367188 54.300781 C 102.367188 58.738281 98.773438 62.214844 94.339844 62.214844 Z M 94.339844 62.214844 " fill-opacity="1" fill-rule="evenodd"/></g></svg>